<svg width="292" height="341" viewBox="0 0 292 341" fill="none" xmlns="http://www.w3.org/2000/svg">
<g filter="url(#filter0_df_17_6)">
<path d="M141.573 205.651C137.887 214.75 130.513 219.3 119.453 219.3C108.394 219.3 101.021 214.75 97.3342 205.651L81.6057 168.933C90.5777 166.145 100.555 162.249 111.497 157.096C112.747 156.508 114.008 155.902 115.282 155.281L109.316 169.996L113.002 171.389L120.428 152.715C137.985 143.776 157.801 131.789 179.737 116.205L141.573 205.651ZM38.9621 19.3C56.5759 19.3001 67.8405 25.7066 72.7561 38.5198L108.095 128.411C97.838 132.063 89.9111 134.507 83.6975 135.811C75.7941 137.47 70.7693 137.264 67.2668 135.458L19.3 23.4788C21.5529 22.3646 24.5226 21.4354 28.2092 20.6926C32.1006 19.7641 35.6851 19.3 38.9621 19.3ZM199.638 19.3C202.915 19.3 206.397 19.7642 210.083 20.6926C213.975 21.4354 217.047 22.3645 219.3 23.4788L187.807 97.2883C166.327 105.86 148.62 112.96 133.968 118.67L165.844 38.5198C171.169 25.7066 182.434 19.3001 199.638 19.3Z" fill="url(#paint0_linear_17_6)"/>
</g>
<g filter="url(#filter1_df_17_6)">
<path d="M49.3 124.3C11.2571 161.084 19.0742 213.546 219.3 85.3C52.7122 177.557 27.6089 149.154 49.3 124.3Z" fill="#FFCB00"/>
<path d="M49.3 124.3C11.2571 161.084 19.0742 213.546 219.3 85.3C52.7122 177.557 27.6089 149.154 49.3 124.3Z" stroke="#EFBF04"/>
</g>
<g filter="url(#filter2_dddddd_17_6)">
<g clip-path="url(#clip0_17_6)">
<path d="M216.763 77.9084L224.693 72.5663L223.676 63.0509L231.23 68.9617L239.939 65.0711L236.666 74.0305L243.089 81.1535L233.526 80.8029L228.75 89.0867L226.125 79.885L216.763 77.9084Z" fill="#EFBF04"/>
</g>
</g>
<g filter="url(#filter3_d_17_6)">
<path d="M217.344 319.84C212.551 319.84 208.769 319.039 205.997 317.437C203.225 315.787 201.839 313.596 201.839 310.863C201.839 309.638 202.356 308.601 203.39 307.753C204.47 306.905 206.185 306.481 208.534 306.481C208.91 308.365 209.85 309.85 211.353 310.934C212.857 311.97 214.619 312.489 216.639 312.489C218.988 312.489 220.797 312.206 222.065 311.641C223.381 311.075 224.039 310.25 224.039 309.167C224.039 308.224 223.522 307.399 222.488 306.693C221.454 305.986 219.387 305.255 216.286 304.501C212.669 303.653 209.85 302.805 207.83 301.957C205.856 301.061 204.4 299.954 203.46 298.635C202.521 297.315 202.051 295.572 202.051 293.404C202.051 290.341 203.319 287.891 205.856 286.053C208.44 284.168 212.035 283.225 216.639 283.225C221.149 283.225 224.814 284.003 227.633 285.558C230.452 287.113 231.861 289.186 231.861 291.778C231.861 293.098 231.368 294.064 230.381 294.676C229.394 295.242 227.75 295.548 225.448 295.595C224.837 293.804 223.898 292.485 222.629 291.637C221.408 290.741 219.646 290.294 217.344 290.294C215.699 290.294 214.243 290.577 212.974 291.142C211.706 291.707 211.071 292.391 211.071 293.192C211.071 294.087 211.588 294.794 212.622 295.312C213.702 295.831 215.488 296.349 217.978 296.867C223.381 298.046 227.257 299.601 229.606 301.533C232.002 303.465 233.2 306.08 233.2 309.379C233.2 311.405 232.566 313.219 231.297 314.821C230.029 316.424 228.196 317.672 225.8 318.568C223.404 319.416 220.585 319.84 217.344 319.84Z" fill="url(#paint1_linear_17_6)"/>
</g>
<g filter="url(#filter4_d_17_6)">
<path d="M193.236 314.186C193.236 316.212 192.437 317.672 190.839 318.568C189.242 319.416 186.823 319.84 183.581 319.84V288.88C183.581 286.854 184.38 285.416 185.977 284.568C187.575 283.673 189.994 283.225 193.236 283.225V314.186Z" fill="url(#paint2_linear_17_6)"/>
</g>
<g filter="url(#filter5_d_17_6)">
<path d="M171.952 291.566C169.133 291.566 166.854 292.297 165.116 293.757C163.378 295.218 162.508 297.056 162.508 299.271V314.185C162.508 316.211 161.71 317.672 160.112 318.568C158.562 319.416 156.142 319.84 152.854 319.84V290.577C152.854 288.22 153.629 286.406 155.179 285.134C156.73 283.862 159.032 283.225 162.086 283.225V287.396C161.381 288.15 160.794 288.951 160.324 289.799L160.817 290.082C163.777 285.511 167.465 283.225 171.881 283.225C173.995 283.225 175.593 283.791 176.673 284.922C177.754 286.053 178.294 287.49 178.294 289.234C178.294 290.553 177.942 291.707 177.237 292.697C175.922 291.943 174.16 291.566 171.952 291.566Z" fill="url(#paint3_linear_17_6)"/>
</g>
<g filter="url(#filter6_d_17_6)">
<path d="M126.219 319.84C123.917 319.84 121.755 319.392 119.735 318.497C117.762 317.554 116.165 316.211 114.943 314.468C113.721 312.677 113.111 310.533 113.111 308.036C113.111 305.538 113.768 303.394 115.084 301.603C116.399 299.766 118.138 298.375 120.299 297.433C122.507 296.49 124.903 296.019 127.487 296.019C129.648 296.019 131.551 296.349 133.195 297.009C134.887 297.669 136.461 298.635 137.917 299.907L138.27 299.483C137.283 298.587 136.508 297.951 135.944 297.574V296.655C135.944 294.865 135.286 293.451 133.971 292.414C132.702 291.331 130.893 290.789 128.544 290.789C126.477 290.789 124.645 291.166 123.047 291.92C121.45 292.674 120.158 293.781 119.171 295.242C118.044 294.959 117.081 294.441 116.282 293.687C115.53 292.886 115.154 292.014 115.154 291.071C115.154 289.611 115.789 288.291 117.057 287.113C118.326 285.888 120.041 284.945 122.202 284.286C124.41 283.579 126.829 283.225 129.46 283.225C134.581 283.225 138.528 284.403 141.3 286.76C144.072 289.116 145.458 292.32 145.458 296.373V313.549C145.458 315.764 144.73 317.366 143.273 318.356C141.864 319.345 139.609 319.84 136.508 319.84V317.083C137.212 316.424 137.776 315.835 138.199 315.316L137.847 314.963C136.296 316.565 134.675 317.79 132.984 318.638C131.293 319.439 129.038 319.84 126.219 319.84ZM128.897 312.913C131.152 312.913 132.914 312.489 134.182 311.641C135.451 310.792 136.085 309.567 136.085 307.965C136.085 306.41 135.427 305.185 134.112 304.289C132.843 303.394 131.105 302.946 128.897 302.946C126.923 302.946 125.349 303.394 124.175 304.289C123.047 305.185 122.484 306.41 122.484 307.965C122.484 309.567 123.047 310.792 124.175 311.641C125.349 312.489 126.923 312.913 128.897 312.913Z" fill="url(#paint4_linear_17_6)"/>
</g>
<g filter="url(#filter7_d_17_6)">
<path d="M102 319.84C97.9127 319.84 94.8354 318.685 92.7682 316.376C90.701 314.02 89.6674 311.051 89.6674 307.47V274.743C89.6674 272.717 90.4426 271.28 91.993 270.431C93.5904 269.536 96.0334 269.088 99.3222 269.088V307.117C99.3222 308.672 99.6745 309.803 100.379 310.51C101.084 311.169 102.188 311.499 103.692 311.499C105.477 311.499 107.239 311.028 108.977 310.085C109.494 310.557 109.893 311.146 110.175 311.853C110.504 312.559 110.668 313.266 110.668 313.973C110.668 315.481 109.917 316.848 108.413 318.073C106.957 319.251 104.819 319.84 102 319.84Z" fill="url(#paint5_linear_17_6)"/>
</g>
<g filter="url(#filter8_d_17_6)">
<path d="M67.0461 319.84C63.9453 319.84 61.1263 319.274 58.5893 318.144C56.0523 317.013 54.0556 315.458 52.5991 313.478C51.1427 311.452 50.4144 309.167 50.4144 306.622V297.221C50.4144 294.629 51.1192 292.273 52.5286 290.152C53.9381 287.985 55.9113 286.288 58.4484 285.063C60.9854 283.838 63.8513 283.225 67.0461 283.225C70.2409 283.225 73.1068 283.838 75.6438 285.063C78.1808 286.288 80.1541 287.985 81.5635 290.152C82.973 292.273 83.6777 294.629 83.6777 297.221V306.622C83.6777 309.167 82.9495 311.452 81.493 313.478C80.0366 315.458 78.0399 317.013 75.5028 318.144C72.9658 319.274 70.1469 319.84 67.0461 319.84ZM67.0461 311.499C69.2542 311.499 70.9691 311.004 72.1906 310.015C73.4121 309.025 74.0229 307.659 74.0229 305.915V297.716C74.0229 295.878 73.3886 294.394 72.1201 293.263C70.8986 292.132 69.2072 291.566 67.0461 291.566C64.8849 291.566 63.1701 292.132 61.9015 293.263C60.68 294.394 60.0692 295.878 60.0692 297.716V305.915C60.0692 307.659 60.68 309.025 61.9015 310.015C63.1231 311.004 64.8379 311.499 67.0461 311.499Z" fill="url(#paint6_linear_17_6)"/>
</g>
<g filter="url(#filter9_d_17_6)">
<path d="M29.2742 319.84C26.7372 319.84 25.0458 318.685 24.2001 316.376L6.3 270.149C6.81681 269.866 7.49804 269.63 8.34372 269.442C9.23638 269.206 10.0586 269.088 10.8103 269.088C14.8507 269.088 17.4347 270.714 18.5623 273.966L28.7104 302.522L26.9486 307.329L27.7943 307.682L39.9156 273.966C41.1372 270.714 43.7212 269.088 47.6677 269.088C48.4194 269.088 49.2181 269.206 50.0637 269.442C50.9564 269.63 51.6611 269.866 52.1779 270.149L34.3483 316.376C33.5026 318.685 31.8112 319.84 29.2742 319.84Z" fill="url(#paint7_linear_17_6)"/>
</g>
<g filter="url(#filter10_dddddd_17_6)">
<path d="M183.083 279.738L184.594 273.531L179.527 269.356L186.222 268.804L188.825 262.951L191.429 268.804L198.124 269.356L193.056 273.531L194.567 279.738L188.825 276.447L183.083 279.738Z" fill="#EFBF04"/>
</g>
<defs>
<filter id="filter0_df_17_6" x="3.8147e-06" y="4.95911e-05" width="238.6" height="238.6" filterUnits="userSpaceOnUse" color-interpolation-filters="sRGB">
<feFlood flood-opacity="0" result="BackgroundImageFix"/>
<feColorMatrix in="SourceAlpha" type="matrix" values="0 0 0 0 0 0 0 0 0 0 0 0 0 0 0 0 0 0 127 0" result="hardAlpha"/>
<feOffset/>
<feGaussianBlur stdDeviation="9.65"/>
<feComposite in2="hardAlpha" operator="out"/>
<feColorMatrix type="matrix" values="0 0 0 0 0.937255 0 0 0 0 0.74902 0 0 0 0 0.0156863 0 0 0 0.35 0"/>
<feBlend mode="normal" in2="BackgroundImageFix" result="effect1_dropShadow_17_6"/>
<feBlend mode="normal" in="SourceGraphic" in2="effect1_dropShadow_17_6" result="shape"/>
<feGaussianBlur stdDeviation="0.8" result="effect2_foregroundBlur_17_6"/>
</filter>
<filter id="filter1_df_17_6" x="11.541" y="65.5625" width="227.329" height="121.025" filterUnits="userSpaceOnUse" color-interpolation-filters="sRGB">
<feFlood flood-opacity="0" result="BackgroundImageFix"/>
<feColorMatrix in="SourceAlpha" type="matrix" values="0 0 0 0 0 0 0 0 0 0 0 0 0 0 0 0 0 0 127 0" result="hardAlpha"/>
<feOffset/>
<feGaussianBlur stdDeviation="9.65"/>
<feComposite in2="hardAlpha" operator="out"/>
<feColorMatrix type="matrix" values="0 0 0 0 0.937255 0 0 0 0 0.74902 0 0 0 0 0.0156863 0 0 0 0.35 0"/>
<feBlend mode="normal" in2="BackgroundImageFix" result="effect1_dropShadow_17_6"/>
<feBlend mode="normal" in="SourceGraphic" in2="effect1_dropShadow_17_6" result="shape"/>
<feGaussianBlur stdDeviation="0.8" result="effect2_foregroundBlur_17_6"/>
</filter>
<filter id="filter2_dddddd_17_6" x="161.14" y="3.13962" width="141.321" height="141.319" filterUnits="userSpaceOnUse" color-interpolation-filters="sRGB">
<feFlood flood-opacity="0" result="BackgroundImageFix"/>
<feColorMatrix in="SourceAlpha" type="matrix" values="0 0 0 0 0 0 0 0 0 0 0 0 0 0 0 0 0 0 127 0" result="hardAlpha"/>
<feOffset/>
<feGaussianBlur stdDeviation="0.573338"/>
<feColorMatrix type="matrix" values="0 0 0 0 0.937255 0 0 0 0 0.74902 0 0 0 0 0.0156863 0 0 0 1 0"/>
<feBlend mode="normal" in2="BackgroundImageFix" result="effect1_dropShadow_17_6"/>
<feColorMatrix in="SourceAlpha" type="matrix" values="0 0 0 0 0 0 0 0 0 0 0 0 0 0 0 0 0 0 127 0" result="hardAlpha"/>
<feOffset/>
<feGaussianBlur stdDeviation="1.14668"/>
<feColorMatrix type="matrix" values="0 0 0 0 0.937255 0 0 0 0 0.74902 0 0 0 0 0.0156863 0 0 0 1 0"/>
<feBlend mode="normal" in2="effect1_dropShadow_17_6" result="effect2_dropShadow_17_6"/>
<feColorMatrix in="SourceAlpha" type="matrix" values="0 0 0 0 0 0 0 0 0 0 0 0 0 0 0 0 0 0 127 0" result="hardAlpha"/>
<feOffset/>
<feGaussianBlur stdDeviation="4.01337"/>
<feColorMatrix type="matrix" values="0 0 0 0 0.937255 0 0 0 0 0.74902 0 0 0 0 0.0156863 0 0 0 1 0"/>
<feBlend mode="normal" in2="effect2_dropShadow_17_6" result="effect3_dropShadow_17_6"/>
<feColorMatrix in="SourceAlpha" type="matrix" values="0 0 0 0 0 0 0 0 0 0 0 0 0 0 0 0 0 0 127 0" result="hardAlpha"/>
<feOffset/>
<feGaussianBlur stdDeviation="8.02674"/>
<feColorMatrix type="matrix" values="0 0 0 0 0.937255 0 0 0 0 0.74902 0 0 0 0 0.0156863 0 0 0 1 0"/>
<feBlend mode="normal" in2="effect3_dropShadow_17_6" result="effect4_dropShadow_17_6"/>
<feColorMatrix in="SourceAlpha" type="matrix" values="0 0 0 0 0 0 0 0 0 0 0 0 0 0 0 0 0 0 127 0" result="hardAlpha"/>
<feOffset/>
<feGaussianBlur stdDeviation="13.7601"/>
<feColorMatrix type="matrix" values="0 0 0 0 0.937255 0 0 0 0 0.74902 0 0 0 0 0.0156863 0 0 0 1 0"/>
<feBlend mode="normal" in2="effect4_dropShadow_17_6" result="effect5_dropShadow_17_6"/>
<feColorMatrix in="SourceAlpha" type="matrix" values="0 0 0 0 0 0 0 0 0 0 0 0 0 0 0 0 0 0 127 0" result="hardAlpha"/>
<feOffset/>
<feGaussianBlur stdDeviation="24.0802"/>
<feColorMatrix type="matrix" values="0 0 0 0 0.937255 0 0 0 0 0.74902 0 0 0 0 0.0156863 0 0 0 1 0"/>
<feBlend mode="normal" in2="effect5_dropShadow_17_6" result="effect6_dropShadow_17_6"/>
<feBlend mode="normal" in="SourceGraphic" in2="effect6_dropShadow_17_6" result="shape"/>
</filter>
<filter id="filter3_d_17_6" x="196.539" y="277.925" width="41.9605" height="47.2147" filterUnits="userSpaceOnUse" color-interpolation-filters="sRGB">
<feFlood flood-opacity="0" result="BackgroundImageFix"/>
<feColorMatrix in="SourceAlpha" type="matrix" values="0 0 0 0 0 0 0 0 0 0 0 0 0 0 0 0 0 0 127 0" result="hardAlpha"/>
<feOffset/>
<feGaussianBlur stdDeviation="2.65"/>
<feComposite in2="hardAlpha" operator="out"/>
<feColorMatrix type="matrix" values="0 0 0 0 0.937255 0 0 0 0 0.74902 0 0 0 0 0.0156863 0 0 0 0.64 0"/>
<feBlend mode="normal" in2="BackgroundImageFix" result="effect1_dropShadow_17_6"/>
<feBlend mode="normal" in="SourceGraphic" in2="effect1_dropShadow_17_6" result="shape"/>
</filter>
<filter id="filter4_d_17_6" x="178.281" y="277.925" width="20.2545" height="47.2147" filterUnits="userSpaceOnUse" color-interpolation-filters="sRGB">
<feFlood flood-opacity="0" result="BackgroundImageFix"/>
<feColorMatrix in="SourceAlpha" type="matrix" values="0 0 0 0 0 0 0 0 0 0 0 0 0 0 0 0 0 0 127 0" result="hardAlpha"/>
<feOffset/>
<feGaussianBlur stdDeviation="2.65"/>
<feComposite in2="hardAlpha" operator="out"/>
<feColorMatrix type="matrix" values="0 0 0 0 0.937255 0 0 0 0 0.74902 0 0 0 0 0.0156863 0 0 0 0.64 0"/>
<feBlend mode="normal" in2="BackgroundImageFix" result="effect1_dropShadow_17_6"/>
<feBlend mode="normal" in="SourceGraphic" in2="effect1_dropShadow_17_6" result="shape"/>
</filter>
<filter id="filter5_d_17_6" x="147.554" y="277.925" width="36.0408" height="47.2147" filterUnits="userSpaceOnUse" color-interpolation-filters="sRGB">
<feFlood flood-opacity="0" result="BackgroundImageFix"/>
<feColorMatrix in="SourceAlpha" type="matrix" values="0 0 0 0 0 0 0 0 0 0 0 0 0 0 0 0 0 0 127 0" result="hardAlpha"/>
<feOffset/>
<feGaussianBlur stdDeviation="2.65"/>
<feComposite in2="hardAlpha" operator="out"/>
<feColorMatrix type="matrix" values="0 0 0 0 0.937255 0 0 0 0 0.74902 0 0 0 0 0.0156863 0 0 0 0.64 0"/>
<feBlend mode="normal" in2="BackgroundImageFix" result="effect1_dropShadow_17_6"/>
<feBlend mode="normal" in="SourceGraphic" in2="effect1_dropShadow_17_6" result="shape"/>
</filter>
<filter id="filter6_d_17_6" x="107.811" y="277.925" width="42.9471" height="47.2147" filterUnits="userSpaceOnUse" color-interpolation-filters="sRGB">
<feFlood flood-opacity="0" result="BackgroundImageFix"/>
<feColorMatrix in="SourceAlpha" type="matrix" values="0 0 0 0 0 0 0 0 0 0 0 0 0 0 0 0 0 0 127 0" result="hardAlpha"/>
<feOffset/>
<feGaussianBlur stdDeviation="2.65"/>
<feComposite in2="hardAlpha" operator="out"/>
<feColorMatrix type="matrix" values="0 0 0 0 0.937255 0 0 0 0 0.74902 0 0 0 0 0.0156863 0 0 0 0.64 0"/>
<feBlend mode="normal" in2="BackgroundImageFix" result="effect1_dropShadow_17_6"/>
<feBlend mode="normal" in="SourceGraphic" in2="effect1_dropShadow_17_6" result="shape"/>
</filter>
<filter id="filter7_d_17_6" x="84.3674" y="263.788" width="31.601" height="61.3515" filterUnits="userSpaceOnUse" color-interpolation-filters="sRGB">
<feFlood flood-opacity="0" result="BackgroundImageFix"/>
<feColorMatrix in="SourceAlpha" type="matrix" values="0 0 0 0 0 0 0 0 0 0 0 0 0 0 0 0 0 0 127 0" result="hardAlpha"/>
<feOffset/>
<feGaussianBlur stdDeviation="2.65"/>
<feComposite in2="hardAlpha" operator="out"/>
<feColorMatrix type="matrix" values="0 0 0 0 0.937255 0 0 0 0 0.74902 0 0 0 0 0.0156863 0 0 0 0.64 0"/>
<feBlend mode="normal" in2="BackgroundImageFix" result="effect1_dropShadow_17_6"/>
<feBlend mode="normal" in="SourceGraphic" in2="effect1_dropShadow_17_6" result="shape"/>
</filter>
<filter id="filter8_d_17_6" x="45.1144" y="277.925" width="43.8633" height="47.2147" filterUnits="userSpaceOnUse" color-interpolation-filters="sRGB">
<feFlood flood-opacity="0" result="BackgroundImageFix"/>
<feColorMatrix in="SourceAlpha" type="matrix" values="0 0 0 0 0 0 0 0 0 0 0 0 0 0 0 0 0 0 127 0" result="hardAlpha"/>
<feOffset/>
<feGaussianBlur stdDeviation="2.65"/>
<feComposite in2="hardAlpha" operator="out"/>
<feColorMatrix type="matrix" values="0 0 0 0 0.937255 0 0 0 0 0.74902 0 0 0 0 0.0156863 0 0 0 0.64 0"/>
<feBlend mode="normal" in2="BackgroundImageFix" result="effect1_dropShadow_17_6"/>
<feBlend mode="normal" in="SourceGraphic" in2="effect1_dropShadow_17_6" result="shape"/>
</filter>
<filter id="filter9_d_17_6" x="1" y="263.788" width="56.4779" height="61.3515" filterUnits="userSpaceOnUse" color-interpolation-filters="sRGB">
<feFlood flood-opacity="0" result="BackgroundImageFix"/>
<feColorMatrix in="SourceAlpha" type="matrix" values="0 0 0 0 0 0 0 0 0 0 0 0 0 0 0 0 0 0 127 0" result="hardAlpha"/>
<feOffset/>
<feGaussianBlur stdDeviation="2.65"/>
<feComposite in2="hardAlpha" operator="out"/>
<feColorMatrix type="matrix" values="0 0 0 0 0.937255 0 0 0 0 0.74902 0 0 0 0 0.0156863 0 0 0 0.64 0"/>
<feBlend mode="normal" in2="BackgroundImageFix" result="effect1_dropShadow_17_6"/>
<feBlend mode="normal" in="SourceGraphic" in2="effect1_dropShadow_17_6" result="shape"/>
</filter>
<filter id="filter10_dddddd_17_6" x="118.603" y="202.027" width="140.445" height="138.635" filterUnits="userSpaceOnUse" color-interpolation-filters="sRGB">
<feFlood flood-opacity="0" result="BackgroundImageFix"/>
<feColorMatrix in="SourceAlpha" type="matrix" values="0 0 0 0 0 0 0 0 0 0 0 0 0 0 0 0 0 0 127 0" result="hardAlpha"/>
<feOffset/>
<feGaussianBlur stdDeviation="0.725285"/>
<feColorMatrix type="matrix" values="0 0 0 0 0.937255 0 0 0 0 0.74902 0 0 0 0 0.0156863 0 0 0 1 0"/>
<feBlend mode="normal" in2="BackgroundImageFix" result="effect1_dropShadow_17_6"/>
<feColorMatrix in="SourceAlpha" type="matrix" values="0 0 0 0 0 0 0 0 0 0 0 0 0 0 0 0 0 0 127 0" result="hardAlpha"/>
<feOffset/>
<feGaussianBlur stdDeviation="1.45057"/>
<feColorMatrix type="matrix" values="0 0 0 0 0.937255 0 0 0 0 0.74902 0 0 0 0 0.0156863 0 0 0 1 0"/>
<feBlend mode="normal" in2="effect1_dropShadow_17_6" result="effect2_dropShadow_17_6"/>
<feColorMatrix in="SourceAlpha" type="matrix" values="0 0 0 0 0 0 0 0 0 0 0 0 0 0 0 0 0 0 127 0" result="hardAlpha"/>
<feOffset/>
<feGaussianBlur stdDeviation="5.07699"/>
<feColorMatrix type="matrix" values="0 0 0 0 0.937255 0 0 0 0 0.74902 0 0 0 0 0.0156863 0 0 0 1 0"/>
<feBlend mode="normal" in2="effect2_dropShadow_17_6" result="effect3_dropShadow_17_6"/>
<feColorMatrix in="SourceAlpha" type="matrix" values="0 0 0 0 0 0 0 0 0 0 0 0 0 0 0 0 0 0 127 0" result="hardAlpha"/>
<feOffset/>
<feGaussianBlur stdDeviation="10.154"/>
<feColorMatrix type="matrix" values="0 0 0 0 0.937255 0 0 0 0 0.74902 0 0 0 0 0.0156863 0 0 0 1 0"/>
<feBlend mode="normal" in2="effect3_dropShadow_17_6" result="effect4_dropShadow_17_6"/>
<feColorMatrix in="SourceAlpha" type="matrix" values="0 0 0 0 0 0 0 0 0 0 0 0 0 0 0 0 0 0 127 0" result="hardAlpha"/>
<feOffset/>
<feGaussianBlur stdDeviation="17.4068"/>
<feColorMatrix type="matrix" values="0 0 0 0 0.937255 0 0 0 0 0.74902 0 0 0 0 0.0156863 0 0 0 1 0"/>
<feBlend mode="normal" in2="effect4_dropShadow_17_6" result="effect5_dropShadow_17_6"/>
<feColorMatrix in="SourceAlpha" type="matrix" values="0 0 0 0 0 0 0 0 0 0 0 0 0 0 0 0 0 0 127 0" result="hardAlpha"/>
<feOffset/>
<feGaussianBlur stdDeviation="30.462"/>
<feColorMatrix type="matrix" values="0 0 0 0 0.937255 0 0 0 0 0.74902 0 0 0 0 0.0156863 0 0 0 1 0"/>
<feBlend mode="normal" in2="effect5_dropShadow_17_6" result="effect6_dropShadow_17_6"/>
<feBlend mode="normal" in="SourceGraphic" in2="effect6_dropShadow_17_6" result="shape"/>
</filter>
<linearGradient id="paint0_linear_17_6" x1="219.3" y1="81.3001" x2="19.3" y2="219.3" gradientUnits="userSpaceOnUse">
<stop stop-color="#EFBF04"/>
<stop offset="1" stop-color="#BA9400"/>
</linearGradient>
<linearGradient id="paint1_linear_17_6" x1="235.22" y1="244.985" x2="3.70506" y2="318.801" gradientUnits="userSpaceOnUse">
<stop stop-color="#EFBF04"/>
<stop offset="1" stop-color="#BA9400"/>
</linearGradient>
<linearGradient id="paint2_linear_17_6" x1="235.22" y1="244.985" x2="3.70502" y2="318.801" gradientUnits="userSpaceOnUse">
<stop stop-color="#EFBF04"/>
<stop offset="1" stop-color="#BA9400"/>
</linearGradient>
<linearGradient id="paint3_linear_17_6" x1="235.22" y1="244.985" x2="3.70501" y2="318.801" gradientUnits="userSpaceOnUse">
<stop stop-color="#EFBF04"/>
<stop offset="1" stop-color="#BA9400"/>
</linearGradient>
<linearGradient id="paint4_linear_17_6" x1="235.22" y1="244.985" x2="3.70506" y2="318.801" gradientUnits="userSpaceOnUse">
<stop stop-color="#EFBF04"/>
<stop offset="1" stop-color="#BA9400"/>
</linearGradient>
<linearGradient id="paint5_linear_17_6" x1="235.22" y1="244.985" x2="3.70504" y2="318.801" gradientUnits="userSpaceOnUse">
<stop stop-color="#EFBF04"/>
<stop offset="1" stop-color="#BA9400"/>
</linearGradient>
<linearGradient id="paint6_linear_17_6" x1="235.22" y1="244.985" x2="3.70503" y2="318.801" gradientUnits="userSpaceOnUse">
<stop stop-color="#EFBF04"/>
<stop offset="1" stop-color="#BA9400"/>
</linearGradient>
<linearGradient id="paint7_linear_17_6" x1="235.22" y1="244.985" x2="3.70504" y2="318.801" gradientUnits="userSpaceOnUse">
<stop stop-color="#EFBF04"/>
<stop offset="1" stop-color="#BA9400"/>
</linearGradient>
<clipPath id="clip0_17_6">
<rect width="31.8521" height="31.8253" fill="white" transform="translate(231.005 51.3) rotate(43)"/>
</clipPath>
</defs>
</svg>
